<svg width="100" height="100" xmlns="http://www.w3.org/2000/svg" preserveAspectRatio="xMidYMid meet" version="1.0">

 <g>
  <title>Layer 1</title>
  <g stroke="null" id="svg_1" fill="#FFFFFF" transform="translate(0 512) scale(0.1 -0.1)">
   <path stroke="null" id="svg_2" d="m454.02893,5114.48522c-96.01596,-9.32949 -184.64608,-44.70379 -262.39179,-104.56799c-37.90104,-29.15464 -87.0752,-83.96537 -115.45239,-128.66916c-12.24495,-19.24206 -36.15176,-68.22187 -44.70379,-91.54558c-9.91258,-27.01664 -20.01952,-66.86132 -24.87863,-97.9596c-6.02529,-38.87286 -6.02529,-106.90036 0,-145.77322c8.35766,-53.06145 22.15753,-97.18215 46.06434,-145.77322c25.65609,-52.28399 52.28399,-89.40757 95.04414,-132.36208c42.95451,-42.76014 80.07809,-69.38805 132.36208,-95.04414c48.00798,-23.51808 91.15685,-37.31794 144.8014,-46.06434c37.90104,-6.02529 109.81582,-6.02529 147.71686,0c53.64454,8.74639 96.79342,22.54626 144.8014,46.06434c52.28399,25.65609 89.40757,52.28399 132.36208,95.04414c42.76014,42.95451 69.38805,80.07809 95.04414,132.36208c23.90681,48.59107 37.70667,92.71177 46.06434,145.77322c6.02529,38.87286 6.02529,106.90036 0,145.77322c-8.35766,53.06145 -22.15753,97.18215 -46.06434,145.77322c-25.65609,52.28399 -52.28399,89.40757 -95.04414,132.36208c-42.95451,42.76014 -80.07809,69.38805 -132.36208,95.04414c-47.81362,23.51808 -92.12867,37.51231 -143.82958,45.67561c-28.57155,4.47038 -92.32304,6.60839 -119.53404,3.88729zm83.57665,-68.22187c169.48566,-15.35478 315.25888,-131.1959 368.5147,-292.71262c68.0275,-206.02615 -28.18282,-429.93381 -224.68512,-523.03431c-197.08539,-93.48922 -432.84928,-22.54626 -549.07912,164.82092c-103.20744,166.76456 -76.96826,386.78494 63.16839,526.72723c90.3794,90.3794 215.35563,135.86064 342.08115,124.19878z"/>
   <path stroke="null" id="svg_3" d="m442.36708,4838.48792c-6.41402,-3.10983 -33.04193,-28.37719 -102.62435,-97.76524c-51.7009,-51.50654 -96.40469,-97.57087 -99.51452,-102.23562c-7.77457,-11.66186 -8.94076,-19.63079 -4.85911,-30.90392c2.91546,-7.77457 17.49279,-23.32371 97.9596,-103.9849c51.89527,-52.28399 98.34833,-97.76524 103.20744,-101.06943c22.74062,-15.93787 53.06145,-0.19436 52.86709,27.79409c-0.19436,5.24784 -1.55491,11.85622 -3.10983,14.96605c-1.55491,2.91546 -32.6532,35.17994 -68.99932,71.52606l-66.27822,66.08386l192.80938,0.97182c174.7335,0.97182 193.58683,1.36055 198.83467,4.27601c12.43931,6.80275 18.85334,17.49279 18.85334,30.70956c0,13.21677 -6.41402,23.90681 -18.85334,30.70956c-5.24784,2.91546 -24.10117,3.30419 -198.83467,4.27601l-192.80938,0.97182l66.27822,66.08386c36.34612,36.34612 67.44441,68.61059 68.99932,71.52606c4.08165,7.77457 3.88729,23.32371 -0.58309,30.70956c-9.52385,16.52096 -27.40537,22.74062 -43.34324,15.35478z"/>
  </g>
 </g>
</svg>
