<svg width="100" height="100" xmlns="http://www.w3.org/2000/svg" stroke="null" style="vector-effect: non-scaling-stroke;" preserveAspectRatio="xMidYMid meet" version="1.0">

 <g stroke="null">
  <title stroke="null">Layer 1</title>
  <g stroke="null" id="svg_1" fill="#FFFFFF" transform="translate(0 200) scale(0.1 -0.1)">
   <path stroke="null" id="svg_2" d="m415.34137,1992.15367c-43.05417,-7.44525 -119.59491,-34.56721 -158.92835,-56.37114c-115.87418,-64.88 -206.76632,-181.34491 -241.31596,-310.04129c-10.09913,-38.28983 -12.22526,-57.96655 -12.22526,-130.2918c0,-72.32524 2.12613,-91.47016 12.22526,-127.63278c60.06322,-210.06228 243.97362,-357.90359 458.1814,-368.00785c146.17156,-6.91344 272.6764,41.48065 374.73073,144.11868c72.28848,72.32524 110.02732,136.67343 136.07243,235.05704c14.88292,55.30754 16.47752,172.83606 3.1892,226.54818c-24.98205,102.10622 -74.94615,187.72655 -148.82923,257.39277c-69.09928,64.88 -147.23463,105.82885 -239.18983,124.97376c-52.09023,10.63606 -133.41477,12.76328 -183.9104,4.25443zm173.81127,-44.67147c145.1085,-30.31279 262.57728,-123.91016 324.76663,-258.98818c26.57665,-56.90295 37.20731,-100.51081 41.45957,-166.45442c13.28832,-226.01638 -144.57696,-428.10161 -369.94693,-473.83669c-65.37855,-12.76328 -157.33375,-8.50885 -218.46004,11.16787c-196.66719,62.22098 -324.76663,235.05704 -324.76663,438.20588c-0.53153,87.74754 16.47752,151.56393 60.06322,229.739c62.72089,111.14688 173.27974,191.44917 304.56838,220.16654c43.05417,9.57246 137.1355,9.57246 182.3158,0z"/>
   <path stroke="null" id="svg_3" d="m401.52152,1868.24352c-35.61271,-11.16787 -53.15329,-22.86754 -78.13534,-50.52131c-39.33344,-44.13967 -46.24337,-93.06557 -19.66672,-147.3095c6.90993,-14.35869 31.36044,-45.20328 53.68483,-68.60262c40.92804,-42.54426 40.92804,-42.54426 49.43256,-30.84459c13.81986,19.67672 52.62176,39.35344 83.45067,42.01246c22.32438,2.12721 33.48658,0 54.74789,-10.10426l26.57665,-12.23147l24.98205,24.99475c14.35139,14.35869 46.24337,37.22623 71.22542,51.05311c59.53169,32.9718 68.03622,47.33049 49.43256,83.49311c-6.3784,13.82688 -26.04511,37.75803 -43.05417,54.24393c-51.02716,48.9259 -115.34265,71.26164 -200.91945,70.72983c-27.63971,0 -60.06322,-3.19082 -71.75695,-6.91344z"/>
   <path stroke="null" id="svg_4" d="m453.08021,1582.66517c-56.34249,-28.18557 -65.91009,-109.01967 -17.54059,-149.96852c39.33344,-32.9718 91.42367,-29.78098 125.44178,7.44525c21.79285,23.93115 26.04511,38.82164 22.85592,73.38885c-3.1892,32.44 -20.72979,57.43475 -48.90103,70.19803c-28.70278,12.76328 -53.68483,12.76328 -81.85607,-1.06361zm69.63082,-59.03016c12.22526,-14.35869 11.69372,-33.5036 -2.12613,-47.33049c-24.45052,-24.46295 -71.75695,3.72262 -60.06322,36.16262c9.56759,28.18557 42.52264,34.03541 62.18936,11.16787z"/>
   <path stroke="null" id="svg_5" d="m188.3768,1576.81534c-25.51358,-27.65377 -44.64877,-85.08852 -44.64877,-134.01442c0,-61.68918 41.45957,-161.66819 85.04527,-205.27605c42.52264,-43.07606 102.58586,-61.68918 153.08149,-47.86229c48.3695,12.76328 91.42367,71.79344 110.02732,149.43671c10.63066,45.20328 10.09913,47.33049 -5.31533,47.33049c-7.44146,0 -22.32438,3.72262 -33.48658,7.97705c-39.33344,16.4859 -63.25242,49.98951 -69.09928,95.72458l-3.72073,30.84459l-29.23431,7.44525c-15.94599,3.72262 -47.30643,18.08131 -69.09928,31.37639c-49.43256,30.31279 -77.07228,35.63082 -93.5498,17.0177z"/>
   <path stroke="null" id="svg_6" d="m643.36901,1570.9655c-44.11723,-13.29508 -40.92804,-7.44525 -34.01811,-62.75278c2.12613,-14.35869 0.53153,-32.9718 -3.1892,-44.67147c-7.44146,-23.39934 -32.95504,-53.18032 -53.68483,-64.34819l-14.88292,-7.44525l8.50453,-19.67672c5.84686,-13.82688 9.56759,-41.48065 10.63066,-84.02491c2.65766,-71.79344 6.90993,-88.81114 26.04511,-97.8518c26.57665,-12.23147 85.04527,-2.12721 134.47784,23.39934c53.68483,27.12197 115.87418,98.3836 140.3247,161.13638c31.36044,78.70688 2.65766,168.58163 -62.18936,198.36261c-31.36044,14.35869 -99.92819,13.29508 -152.01842,-2.12721z"/>
  </g>
 </g>
</svg>
