<svg width="100" height="100" xmlns="http://www.w3.org/2000/svg" style="vector-effect: non-scaling-stroke;" stroke="null" preserveAspectRatio="xMidYMid meet" version="1.0">

 <g stroke="null">
  <title stroke="null">Layer 1</title>
  <g stroke="null" id="svg_1" fill="#FFFFFF" transform="translate(0 980) scale(0.1 -0.1)">
   <path stroke="null" id="svg_2" d="m247.63368,9797.96536c-71.33864,-7.74534 -136.56253,-48.81601 -174.77966,-109.96341c-12.12757,-19.26143 -23.54175,-46.37011 -29.65649,-70.11569c-3.15928,-12.22948 -3.77076,-35.66932 -4.58606,-174.37201l-0.61147,-126.77895l48.10262,0.61147c26.3953,0.30574 48.20454,0.71339 48.40836,0.91721c0.10191,0.10191 0.8153,57.68238 1.42677,127.69616c0.61147,70.11569 1.6306,132.68986 2.14016,139.21225c1.42677,15.79641 3.87267,24.96852 10.19123,37.70757c7.4396,14.77729 13.14669,23.03219 23.33793,33.73298c18.64996,19.56717 34.95593,30.26796 58.70151,38.31904c12.84095,4.38223 19.77099,5.29944 41.2745,5.29944c21.5035,0 28.43354,-0.91721 41.2745,-5.29944c52.38294,-17.73275 87.44079,-60.94358 94.26891,-115.97624c0.8153,-6.42048 1.42677,-41.47832 1.73251,-104.66397l0.50956,-95.08421l-26.3953,0c-30.16605,0 -35.05784,-0.8153 -44.12804,-6.93004c-3.05737,-2.03825 -7.23578,-6.01283 -9.37594,-8.86637l-3.87267,-5.09562l0,-268.64092l0,-268.74284l4.38223,-6.01283c2.4459,-3.26119 6.72621,-7.94916 9.47785,-10.29315l4.9937,-4.28032l302.17008,0l302.17008,0l4.9937,4.28032c2.75163,2.34398 7.03195,7.03195 9.47785,10.29315l4.38223,6.01283l0,268.23327l0,268.13136l-3.56693,5.40135c-3.87267,5.70709 -9.17211,9.98741 -17.01936,14.0639l-4.78988,2.4459l-217.68475,0l-217.58284,0l0,33.93681c-0.10191,59.31298 -1.93633,165.91329 -3.05737,178.55042c-1.52869,17.12127 -3.46502,26.08956 -9.68167,44.94334c-11.82183,35.97506 -28.63737,63.79712 -54.82884,90.70198c-35.77123,36.89227 -79.38971,59.61872 -131.67074,68.68892c-14.26773,2.54781 -45.65673,3.46502 -60.12828,1.93633zm413.66218,-564.08479c18.75187,-4.58606 38.8286,-21.19777 48.00071,-39.6439c5.91092,-12.02566 7.94916,-22.11498 7.4396,-36.58653c-0.8153,-19.97482 -6.11474,-32.61195 -20.89203,-49.22366l-7.4396,-8.35681l8.15299,-40.05155c4.38223,-22.01307 10.80271,-53.50398 14.16581,-70.01378c3.46502,-16.40789 6.21665,-30.5737 6.21665,-31.28709c0,-1.22295 -12.33139,-1.42677 -75.41513,-1.42677c-57.7843,0 -75.41513,0.30574 -75.41513,1.22295c0,0.71339 6.42048,32.81577 14.26773,71.44055l14.26773,70.11569l-5.70709,6.31856c-7.4396,8.15299 -12.94287,16.30597 -17.3251,25.58c-2.85355,6.01283 -3.77076,9.57976 -4.68797,17.93657c-1.42677,13.96199 0,28.73928 3.77076,37.60565c11.61801,27.72016 33.0196,44.6376 60.63784,48.00071c8.35681,1.01912 22.11498,0.30574 29.96223,-1.6306z"/>
  </g>
 </g>
</svg>
