<svg width="100" height="100" xmlns="http://www.w3.org/2000/svg" style="vector-effect: non-scaling-stroke;" stroke="null" preserveAspectRatio="xMidYMid meet" version="1.0">
 <defs style="vector-effect: non-scaling-stroke;" stroke="null">
  <filter id="svg_1_blur">
   <feGaussianBlur stdDeviation="0" in="SourceGraphic"/>
  </filter>
 </defs>
 <g stroke="null">
  <title stroke="null">Layer 1</title>
  <g filter="url(#svg_1_blur)" stroke="null" transform="translate(0 512) scale(0.1 -0.1)" id="svg_1" fill="#10AC84">
   <path stroke="null" id="svg_2" d="m233.39819,4867.81792c-32.45482,-5.97328 -68.69271,-21.70291 -94.1787,-40.81741c-51.56931,-38.82631 -82.43125,-102.34218 -88.80275,-183.18055l-1.59287,-18.91538l-19.3136,-0.99555c-23.09668,-1.19466 -28.47263,-4.57951 -28.47263,-17.91984c0,-13.34032 5.37595,-16.72518 28.47263,-17.91984l19.3136,-0.99555l1.39377,-8.95992c0.79644,-4.97773 2.78753,-17.91984 4.3804,-28.87085c10.15457,-67.69716 43.60494,-124.84153 92.38671,-158.09278c21.30469,-14.33587 41.41473,-23.29579 74.06866,-32.65392c14.9332,-4.1813 15.92874,-4.1813 268.79755,-4.97773c179.99481,-0.39822 258.44387,0 269.7931,1.59287c8.76081,1.19466 25.08777,5.37595 36.23789,8.95992c38.02988,12.743 60.52923,26.48154 87.20987,53.75951c38.22899,38.82631 57.7417,86.21433 65.70607,158.88922l1.19466,11.34923l18.71627,0c16.92429,0 19.3136,0.39822 24.29133,4.77862c7.16793,6.17239 7.76526,18.91538 0.99555,25.48599c-3.78308,3.98219 -7.16793,4.77862 -23.89312,5.57506l-19.3136,0.99555l-2.1902,23.09668c-2.78753,29.06996 -7.36704,51.76842 -14.73409,73.86955c-26.48154,79.44461 -86.61254,132.00946 -166.85359,145.94712c-23.69401,4.1813 -510.91446,4.1813 -533.61292,0zm532.81648,-38.02988c58.93635,-12.14567 106.32437,-52.16664 128.82372,-109.1119c7.56615,-19.51271 14.73409,-52.56485 16.12785,-76.25886l1.39377,-20.50826l-92.78493,0l-92.78493,0l-2.98664,5.77417c-4.3804,8.36259 -19.71182,21.10559 -28.67174,23.69401c-33.05214,9.95546 -64.71052,-13.34032 -64.90963,-47.38801c0,-34.04769 31.85749,-57.34348 64.90963,-47.38801c8.95992,2.58842 24.29133,15.33142 28.67174,23.69401l2.98664,5.77417l91.9885,-0.39822l91.9885,-0.59733l-0.39822,-11.94656c-0.79644,-16.32696 -7.56615,-47.98534 -14.73409,-67.69716c-17.32251,-47.78623 -54.75506,-86.81165 -101.34663,-105.12971c-30.26461,-11.94656 -20.70737,-11.54834 -301.65059,-10.95101l-256.85099,0.59733l-14.33587,4.57951c-32.65392,9.95546 -56.94526,24.88866 -79.64372,48.78178c-18.91538,20.30915 -31.06105,40.81741 -40.81741,70.08647c-7.16793,21.5038 -14.9332,64.11319 -12.743,69.88736c0.99555,2.38931 14.53498,2.78753 92.58582,2.78753l91.59028,0l2.98664,-5.77417c4.3804,-8.36259 19.71182,-21.10559 28.67174,-23.69401c17.72073,-5.37595 36.63611,-0.99555 49.18,11.15012c7.36704,7.16793 14.73409,20.11004 14.9332,26.28243c0,1.99109 45.19781,26.48154 123.44776,67.49805c136.58898,71.28113 131.41214,67.89627 131.41214,87.40898c0,8.5617 -0.99555,11.34923 -6.17239,17.32251c-7.36704,8.16348 -17.91984,11.74745 -27.47708,8.95992c-3.58397,-0.99555 -60.52923,-30.0655 -126.63351,-64.71052l-119.8638,-62.71943l-7.16793,2.98664c-8.76081,3.58397 -20.90648,3.78308 -31.65838,0.59733c-8.95992,-2.58842 -24.29133,-15.33142 -28.67174,-23.69401l-2.98664,-5.77417l-92.78493,0l-92.78493,0l1.39377,19.51271c1.59287,24.09223 6.96883,49.97643 15.13231,72.27668c17.52162,48.78178 54.75506,87.40898 101.54574,105.92615c28.87085,11.34923 19.11449,10.95101 293.288,11.15012c222.6042,0.19911 254.26257,-0.19911 267.80201,-2.98664zm-432.06718,-204.88347c8.5617,-7.16793 11.54834,-15.33142 8.5617,-24.88866c-6.96883,-23.29579 -38.42809,-24.09223 -45.99425,-0.99555c-7.16793,21.70291 20.11004,40.41919 37.43255,25.88421zm360.58694,0c17.72073,-15.13231 7.96437,-42.8085 -15.13231,-42.8085c-7.56615,0 -9.95546,0.99555 -15.53053,6.57061c-3.78308,3.78308 -7.36704,9.15903 -7.96437,11.94656c-1.99109,7.96437 0.39822,15.13231 7.96437,22.69846c8.5617,8.5617 21.30469,9.35814 30.66283,1.59287z"/>
  </g>
 </g>
</svg>
