<svg width="100" height="100" xmlns="http://www.w3.org/2000/svg" xml:space="preserve" version="1.1">

 <g fill="#10AC84">
  <title>Layer 1</title>
  <g stroke="null" stroke-width="0" id="svg_1">
   <g stroke="null" id="svg_2">
    <path stroke="null" id="svg_3" d="m33.5927,17.16633c-4.99043,2.15869 -9.47159,5.24832 -13.31895,9.1832c-3.84736,3.93488 -6.86834,8.51776 -8.97918,13.62179c-2.18613,5.28593 -3.29457,10.89879 -3.29457,16.6831c0,5.7841 1.10844,11.39717 3.29457,16.6831c2.11074,5.10382 5.13172,9.68681 8.97918,13.62158c3.84746,3.93478 8.32852,7.0243 13.31895,9.1832c5.1685,2.2357 10.65676,3.36932 16.31246,3.36932c5.6557,0 11.14396,-1.13363 16.31246,-3.36943c4.99053,-2.15869 9.47159,-5.24822 13.31895,-9.1832s6.86824,-8.51776 8.97918,-13.62158c2.18603,-5.28593 3.29467,-10.8989 3.29467,-16.6831c0,-5.78421 -1.10864,-11.39717 -3.29467,-16.68321c-2.11063,-5.10393 -5.13172,-9.68681 -8.97918,-13.62169c-0.04475,-0.04576 -0.09082,-0.08985 -0.13567,-0.13551l1.9059,-2.06351l3.55702,3.08628l4.49403,-5.41779l-12.13583,-10.52997l-4.49424,5.41779l3.27434,2.84086l-1.92828,2.08775c-2.44582,-1.7694 -5.07175,-3.26442 -7.85613,-4.46899c-2.04637,-0.88527 -4.14311,-1.597 -6.28051,-2.13477l0,-7.92681l5.59093,0l0,-7.10475l-31.24595,0l0,7.10475l5.59093,0l0,7.92681c-2.1373,0.53777 -4.23404,1.2495 -6.28041,2.13477zm51.27061,39.48789c0,9.54973 -3.6363,18.52804 -10.23902,25.2809c-6.60273,6.75275 -15.38147,10.47167 -24.71913,10.47167c-9.33766,0 -18.1164,-3.71892 -24.71923,-10.47167c-6.60273,-6.75286 -10.23902,-15.73096 -10.23902,-25.2809c0,-9.54993 3.6363,-18.52815 10.23902,-25.2809c4.16508,-4.25972 9.19637,-7.31058 14.68719,-8.98385c2.24783,-0.68509 4.5727,-1.1378 6.9469,-1.34875c1.02017,-0.09059 2.04903,-0.13907 3.08514,-0.13907c1.03611,0 2.06487,0.04848 3.08514,0.13907c2.37421,0.21105 4.69917,0.66377 6.9469,1.34875c5.49091,1.67338 10.52211,4.72424 14.68719,8.98385c6.60262,6.75275 10.23892,15.73107 10.23892,25.2809zm-38.04329,-49.32881l6.17028,0l0,6.58537c-1.02222,-0.07564 -2.05077,-0.11399 -3.08514,-0.11399c-1.03427,0 -2.06292,0.03834 -3.08514,0.11399l0,-6.58537l0,0z"/>
    <path stroke="null" id="svg_4" d="m49.90516,24.84385l0,3.55238l0,3.43274l0,0.11963c0.80012,0 1.59401,0.03981 2.38013,0.11786c5.55333,0.55187 10.70426,3.03049 14.70108,7.11823c4.56269,4.66636 7.07542,10.87048 7.07542,17.46954c0,1.18608 -0.08224,2.35878 -0.24263,3.51528l-4.1141,-1.24197l-9.79064,-2.95558c-0.34459,-5.34047 -4.70173,-9.57773 -10.00926,-9.57773c-5.53168,0 -10.03205,4.60262 -10.03205,10.25999c0,5.65726 4.50037,10.25978 10.03205,10.25978c3.28619,0 6.20839,-1.62438 8.03931,-4.12911l20.40439,6.15961l0.21413,0.09268c1.62302,-3.92391 2.44562,-8.09022 2.44562,-12.38327c0,-8.49676 -3.23521,-16.48501 -9.11005,-22.49333c-3.42421,-3.50202 -7.50674,-6.0848 -11.96134,-7.63197c-3.18812,-1.10688 -6.56646,-1.68477 -10.03205,-1.68477zm0,34.96551c-0.30331,0 -0.59611,-0.04576 -0.87316,-0.12935c-1.27711,-0.38616 -2.21198,-1.59606 -2.21198,-3.02568c0,-1.73983 1.38397,-3.15524 3.08514,-3.15524c0.30321,0 0.59611,0.04576 0.87327,0.12945c1.277,0.38606 2.21177,1.59596 2.21177,3.02579c0.0001,1.73972 -1.38386,3.15503 -3.08504,3.15503z"/>
   </g>
  </g>
  <g id="svg_5"/>
  <g id="svg_6"/>
  <g id="svg_7"/>
  <g id="svg_8"/>
  <g id="svg_9"/>
  <g id="svg_10"/>
  <g id="svg_11"/>
  <g id="svg_12"/>
  <g id="svg_13"/>
  <g id="svg_14"/>
  <g id="svg_15"/>
  <g id="svg_16"/>
  <g id="svg_17"/>
  <g id="svg_18"/>
  <g id="svg_19"/>
 </g>
</svg>
