<svg width="100" height="100" xmlns="http://www.w3.org/2000/svg" style="vector-effect: non-scaling-stroke;" stroke="null" preserveAspectRatio="xMidYMid meet" version="1.0">

 <g stroke="null">
  <title stroke="null">Layer 1</title>
  <g stroke="null" id="svg_1" fill="#FFFFFF" transform="translate(0 980) scale(0.1 -0.1)">
   <path stroke="null" id="svg_2" d="m454.56627,9796.30522c-25.48518,-4.9951 -46.79079,-12.02901 -67.17894,-22.22308c-38.83941,-19.36874 -74.41673,-52.70335 -97.35339,-91.23695c-14.7814,-24.7716 -26.91235,-58.8198 -29.56281,-83.08169c-0.81553,-7.23779 -2.54852,-131.19771 -3.05822,-211.42506l0,-8.2572l-29.97057,-1.01941c-29.56281,-1.01941 -30.07251,-1.01941 -35.67925,-3.77181c-6.21838,-3.05822 -11.72318,-8.97078 -14.47558,-15.49499c-1.22329,-2.95628 -1.93687,-9.27661 -2.54852,-24.87354c-0.40776,-11.5193 -0.81553,-131.19771 -0.81553,-265.96334l-0.10194,-245.06549l3.16016,-5.19898c4.28151,-7.03391 8.46108,-11.31542 15.29111,-15.49499l5.81062,-3.46598l297.87079,0l297.97273,0l5.30092,3.05822c6.72809,3.87375 11.82512,9.37855 15.80081,17.22798l3.05822,6.11644l0,242.41504c-0.10194,133.33846 -0.5097,252.60911 -0.91747,265.04588c-0.81553,19.7765 -1.22329,23.24248 -3.05822,27.01429c-3.36404,6.93197 -7.84944,11.72318 -14.06782,14.67946l-5.70868,2.85434l-33.94626,1.01941l-34.0482,0.91747l0,35.27149c-0.10194,67.38282 -1.93687,179.00791 -3.05822,187.67287c-2.2427,16.82022 -11.82512,45.97527 -21.61143,65.75177c-11.5193,23.0386 -24.56771,40.87823 -45.0578,61.26637c-16.71828,16.61634 -28.44146,25.89294 -46.28109,36.59672c-26.60653,15.90275 -59.73726,27.32011 -87.3632,30.07251c-6.11644,0.61164 -21.30561,1.32523 -33.64044,1.52911c-20.59203,0.5097 -23.44637,0.30582 -34.76179,-1.93687zm60.24697,-97.04757c16.00469,-2.54852 38.22777,-11.21348 52.19365,-20.38814c8.2572,-5.40286 32.21327,-29.15505 37.51419,-37.10642c9.37855,-14.2717 17.83963,-33.84432 20.38814,-46.99467c2.95628,-15.90275 3.56793,-37.92195 3.56793,-126.50844l0,-88.48455l-136.70251,0l-136.70251,0l0.5097,96.6398c0.30582,64.42654 0.81553,99.79997 1.63105,106.22223c1.73299,13.96588 4.48539,24.26189 9.68437,35.67925c7.54361,16.82022 13.45618,25.791 25.38324,38.32971c17.0241,17.83963 27.93176,25.58712 47.60632,33.94626c24.26189,10.19407 48.01408,12.94647 74.92643,8.66496zm-5.09704,-464.84969c20.99979,-5.5048 39.65494,-20.89785 49.54319,-40.67435c5.19898,-10.39795 6.42227,-18.14545 5.81062,-37.71807c-0.40776,-13.35423 -0.81553,-16.10663 -2.95628,-21.50949c-3.16016,-7.54361 -9.88825,-17.83963 -18.14545,-27.52399l-6.21838,-7.23779l12.13095,-59.53338c6.72809,-32.72297 13.04841,-64.12071 14.16976,-69.72745c1.42717,-6.62615 1.73299,-10.49989 1.12135,-11.21348c-1.22329,-1.22329 -139.14909,-1.42717 -144.85777,-0.20388c-3.05822,0.61164 -3.87375,1.22329 -3.87375,3.16016c0,1.22329 6.11644,32.72297 13.66006,69.93134l13.66006,67.79058l-4.68927,5.40286c-12.13095,13.86394 -17.83963,23.34443 -21.20367,35.57731c-2.44658,8.7669 -2.95628,25.791 -1.12135,34.65985c3.36404,15.69887 9.88825,27.72788 21.20367,38.94136c11.31542,11.41736 23.95607,18.24739 39.14524,21.10173c8.66496,1.63105 23.95607,1.12135 32.62103,-1.22329z"/>
  </g>
 </g>
</svg>
