<svg width="99.99999999999999" height="99.99999999999999" xmlns="http://www.w3.org/2000/svg" preserveAspectRatio="xMidYMid meet" version="1.0">

 <g>
  <title>Layer 1</title>
  <g stroke="null" id="svg_1" fill="#FFFFFF" transform="translate(0 982) scale(0.1 -0.1)">
   <path stroke="null" id="svg_2" d="m454.67852,9815.03465c-103.37513,-10.51958 -199.56862,-51.68756 -277.15054,-118.85105c-15.57707,-13.55408 -45.21397,-43.39328 -57.0485,-57.6554c-58.16115,-69.89453 -94.06934,-149.29715 -109.84872,-243.06304c-3.33794,-20.22997 -4.55174,-38.74039 -4.55174,-74.85087c0,-36.51509 1.2138,-53.40711 5.66439,-80.00952c21.84836,-131.19133 94.37279,-247.81709 201.18701,-323.78061c65.44394,-46.52892 145.85806,-78.59342 222.12503,-88.40495c31.35645,-4.14714 91.7429,-4.65289 124.11084,-1.11265c38.94268,4.24829 84.46011,15.77937 124.61659,31.55875c41.57258,16.28512 90.5291,44.20248 122.3913,69.59108c22.55641,18.00467 62.81404,57.8577 83.54976,82.74056c36.81854,44.00018 71.41178,111.16366 88.80955,172.25816c13.25063,46.63007 17.39777,75.86237 18.51042,129.37063c0.91035,47.84387 -1.2138,70.70373 -10.41843,112.57976c-10.82303,49.46227 -29.13115,97.50844 -53.50826,140.29482c-50.27147,88.40495 -133.01203,164.57077 -223.03538,205.33416c-50.17032,22.75871 -107.82572,38.63924 -155.77074,42.98868c-16.38627,1.4161 -87.8992,2.12415 -99.63258,1.0115zm74.85087,-44.50593c21.64606,-1.2138 36.41394,-2.93335 55.63241,-6.67589c73.43478,-14.26213 142.11551,-45.92202 199.26517,-91.7429c51.58641,-41.26913 93.46244,-93.66474 122.3913,-152.93854c34.69439,-71.20948 48.55192,-139.58677 45.01167,-222.83308c-1.4161,-33.78404 -4.85519,-56.8462 -13.55408,-90.22565c-20.33112,-78.59342 -63.01634,-151.4213 -122.59359,-209.38015c-65.03934,-63.21864 -144.54311,-104.08318 -234.76876,-120.87405c-44.60708,-8.29429 -111.77056,-8.49659 -156.57994,-0.50575c-91.7429,16.38627 -176.10186,60.2853 -241.84925,125.93154c-63.52209,63.42094 -106.10617,143.22816 -124.21199,233.15036c-9.30578,45.92202 -10.11498,114.50161 -2.023,161.33398c17.29662,100.23948 68.88303,193.90423 142.72241,259.24702c50.77722,45.01167 103.37513,75.45777 164.46962,95.18199c29.2323,9.50808 71.61408,18.00467 102.36363,20.63457c9.30578,0.8092 45.92202,0.6069 63.72439,-0.30345z"/>
   <path stroke="null" id="svg_3" d="m611.3596,9702.65719c-20.02767,-1.92185 -41.87603,-13.25063 -52.39561,-27.31045c-2.73105,-3.54024 -7.08049,-11.02533 -9.71038,-16.58857c-8.29429,-17.19547 -12.34028,-32.8737 -14.16098,-53.81171c-1.0115,-12.34028 -3.33794,-123.50394 -2.52875,-124.71774c0.2023,-0.4046 3.03449,-1.2138 6.27129,-1.92185c24.78171,-5.46209 47.74272,-16.79087 67.16349,-33.17714c23.97251,-20.12882 42.38178,-51.38411 49.25997,-83.34746c1.8207,-8.29429 4.24829,-25.99551 4.24829,-30.74955c0,-2.023 3.94484,0.70805 22.15181,15.27362c14.56558,11.73338 34.99784,31.55875 46.32662,45.21397c34.49209,41.37028 53.91286,101.25098 49.86687,153.95004c-2.023,27.2093 -7.78854,48.55192 -19.31962,71.81638c-8.69889,17.70122 -17.60007,30.2438 -31.2553,44.10133c-12.03683,12.23913 -23.66906,20.43227 -40.96568,28.72655c-18.10582,8.69889 -27.31045,11.12648 -48.55192,12.64373c-14.66673,1.0115 -14.86903,1.0115 -26.40011,-0.10115z"/>
   <path stroke="null" id="svg_4" d="m422.20942,9699.21809c-71.10833,-18.61157 -133.61893,-54.01401 -184.49729,-104.69007c-16.89202,-16.89202 -38.63924,-42.07833 -42.38178,-49.36112c-1.11265,-2.12415 -1.0115,-2.73105 1.0115,-4.85519c1.2138,-1.31495 4.75404,-4.14714 7.78854,-6.17014l5.46209,-3.84369l2.12415,2.6299c1.2138,1.51725 6.17014,7.58624 10.92418,13.65523c10.72188,13.55408 31.2553,34.99784 46.93352,49.05767c43.49443,38.94268 99.02568,68.07384 158.29949,83.24631c8.09199,2.12415 15.27362,4.45059 16.08282,5.15864c1.11265,1.11265 1.11265,2.52875 0.10115,8.29429c-1.2138,7.38394 -3.13564,10.41843 -6.47359,10.41843c-1.2138,-0.10115 -8.09199,-1.6184 -15.37477,-3.54024z"/>
   <path stroke="null" id="svg_5" d="m436.5727,9638.52819c-62.00485,-21.64606 -114.29931,-54.92436 -160.01903,-101.85788c-12.03683,-12.34028 -20.63457,-22.25296 -20.63457,-23.66906c0,-0.50575 1.71955,-2.2253 3.84369,-3.84369c2.023,-1.71955 5.36094,-4.34944 7.38394,-5.86669l3.64139,-2.93335l6.87819,7.38394c50.77722,54.31746 102.56593,89.113 164.67192,110.55677c7.58624,2.6299 13.85753,5.15864 13.85753,5.66439c0,1.4161 -5.25979,15.57707 -6.27129,16.89202c-1.4161,1.71955 -2.023,1.6184 -13.35178,-2.32645z"/>
   <path stroke="null" id="svg_6" d="m283.22955,9460.40334c-39.04383,-4.95634 -82.84171,-24.37711 -114.60276,-50.97951c-30.2438,-25.28746 -53.50826,-63.62324 -61.60025,-101.55443c-2.93335,-13.85753 -3.23679,-42.38178 -0.50575,-55.22781c5.86669,-27.31045 17.90352,-50.87836 35.50359,-69.59108c17.60007,-18.61157 34.39094,-26.50126 56.54276,-26.50126c21.84836,0 43.59558,7.78854 73.63708,26.50126c12.44143,7.88969 36.11049,24.57941 73.23248,51.78871l28.72655,21.03916l-1.6184,3.74254c-5.56324,12.64373 -9.81153,24.07366 -11.93568,32.2668c-7.08049,27.10815 -5.36094,64.93819 3.94484,89.113c8.19314,21.14031 18.30812,37.62774 32.57025,52.80021c5.25979,5.66439 9.30578,10.62073 9.00233,11.02533c-1.51725,2.52875 -34.99784,11.22763 -52.59791,13.75638c-10.72188,1.51725 -62.00485,2.8322 -70.29913,1.8207z"/>
   <path stroke="null" id="svg_7" d="m485.63036,9447.75961c-7.88969,-1.31495 -22.45526,-6.47359 -32.4691,-11.53108c-54.31746,-27.4116 -78.89687,-89.9222 -58.16115,-147.9822c4.55174,-12.54258 10.41843,-22.65756 19.82537,-33.98634c22.65756,-27.10815 52.29446,-42.07833 86.58426,-43.79788c40.45993,-2.023 76.87387,15.07132 101.04868,47.13582c31.55875,42.07833 32.57025,95.68774 2.73105,140.49711c-16.18397,24.37711 -46.32662,44.10133 -75.15432,49.36112c-8.49659,1.51725 -35.80704,1.71955 -44.40478,0.30345zm37.62774,-76.77272c11.93568,-4.55174 22.25296,-15.88052 26.19781,-28.6254c9.30578,-30.6484 -16.58857,-60.6899 -48.45077,-56.23931c-14.66673,2.023 -27.10815,11.12648 -33.68289,24.57941c-3.13564,6.27129 -3.54024,8.19314 -3.84369,16.89202c-0.50575,10.72188 0.91035,16.89202 5.66439,24.98401c5.15864,9.00233 15.57707,16.89202 26.40011,20.02767c6.77704,1.92185 20.43227,1.2138 27.71505,-1.6184z"/>
   <path stroke="null" id="svg_8" d="m868.17902,9443.71362c-3.64139,-1.4161 -5.36094,-2.6299 -5.36094,-3.84369c0,-1.0115 1.8207,-9.00233 3.94484,-17.90352c14.56558,-59.37495 16.79087,-107.42112 7.58624,-163.25583c-4.45059,-27.2093 -10.92418,-49.96802 -22.75871,-80.61642c-3.33794,-8.49659 -5.96784,-15.98167 -5.96784,-16.79087c0,-1.6184 15.47592,-9.30578 17.39777,-8.59774c1.6184,0.6069 10.11498,21.84836 17.49892,43.29213c8.80004,25.99551 15.57707,58.06 18.81387,90.5291c1.6184,15.77937 1.6184,56.03701 0,72.82788c-2.6299,27.10815 -12.44143,74.85087 -16.99317,82.63941c-2.4276,4.14714 -6.57474,4.65289 -14.16098,1.71955z"/>
   <path stroke="null" id="svg_9" d="m810.22017,9412.35717c-5.66439,-1.51725 -9.10348,-3.13564 -9.10348,-4.04599c0,-0.50575 1.11265,-6.57474 2.4276,-13.35178c3.23679,-16.18397 6.27129,-40.45993 7.78854,-62.20715c2.32645,-36.21164 -4.14714,-86.98885 -16.68972,-129.16833c-2.023,-6.67589 -3.64139,-12.84603 -3.64139,-13.85753c0,-1.71955 9.60923,-6.97934 15.37477,-8.29429c2.73105,-0.6069 2.73105,-0.50575 6.37244,10.62073c5.15864,15.88052 11.22763,39.85303 13.55408,53.50826c8.49659,48.75422 7.78854,104.99352 -1.92185,152.12935c-3.33794,16.28512 -4.34944,17.29662 -14.16098,14.66673z"/>
   <path stroke="null" id="svg_10" d="m608.93201,9217.64375c-10.41843,-9.30578 -22.05066,-17.09432 -35.20014,-23.66906c-20.33112,-10.01383 -37.02084,-14.05983 -61.39795,-14.86903c-26.29896,-0.8092 -43.29213,2.2253 -68.27614,12.23913c-6.06899,2.4276 -11.32878,4.04599 -11.63223,3.64139c-0.70805,-1.11265 1.0115,-19.62307 3.64139,-41.26913c7.38394,-59.37495 31.55875,-107.11767 74.34513,-146.86955c26.60241,-24.78171 58.8692,-41.77488 94.47394,-49.76572c9.50808,-2.12415 13.04833,-2.32645 34.89669,-2.32645c27.91735,0 38.33579,1.4161 54.11516,7.28279c32.36795,12.03683 57.14965,32.4691 74.74972,61.9037c10.11498,16.79087 14.97017,33.98634 13.95868,50.17032c-1.2138,20.83687 -11.02533,39.04383 -32.77255,60.38645c-18.81387,18.51042 -31.4576,27.6139 -84.76356,61.19565c-14.97017,9.50808 -31.6599,20.02767 -36.91969,23.46676c-5.25979,3.33794 -9.81153,6.17014 -10.11498,6.17014c-0.30345,-0.10115 -4.34944,-3.54024 -9.10348,-7.68739z"/>
   <path stroke="null" id="svg_11" d="m250.45701,9124.18131c-3.64139,-3.54024 -6.67589,-6.97934 -6.67589,-7.78854c0,-3.43909 30.6484,-32.4691 51.08066,-48.34962c35.40244,-27.6139 78.69457,-50.17032 125.32464,-65.34279c8.29429,-2.73105 16.58857,-5.15864 18.40927,-5.56324c3.33794,-0.6069 3.54024,-0.4046 5.56324,4.04599c1.11265,2.52875 2.32645,6.87819 2.6299,9.60923l0.6069,4.95634l-5.76554,2.12415c-3.13564,1.11265 -6.06899,2.12415 -6.57474,2.12415c-1.8207,0 -19.82537,6.17014 -31.96335,11.02533c-17.49892,7.08049 -45.31512,20.63457 -59.37495,29.03c-23.06216,13.65523 -44.20248,30.14265 -68.07384,52.90136c-6.06899,5.86669 -12.84603,12.23913 -14.86903,14.16098l-3.74254,3.43909l-6.57474,-6.37244z"/>
   <path stroke="null" id="svg_12" d="m200.79244,9090.19496c-3.33794,-2.52875 -6.97934,-5.25979 -7.99084,-5.96784c-1.8207,-1.31495 -1.71955,-1.6184 2.12415,-6.77704c7.78854,-10.41843 29.4346,-33.78404 42.38178,-46.02317c53.81171,-50.87836 122.99819,-87.39345 192.48813,-101.55443l11.53108,-2.32645l1.71955,2.2253c2.12415,2.52875 4.75404,16.18397 3.43909,17.29662c-0.50575,0.4046 -9.50808,2.93335 -20.12882,5.46209c-48.34962,11.83453 -88.3038,29.4346 -128.15684,56.54276c-31.35645,21.44376 -63.52209,51.38411 -85.77506,80.00952c-2.52875,3.13564 -4.75404,5.76554 -5.05749,5.66439c-0.30345,0 -3.23679,-2.12415 -6.57474,-4.55174z"/>
  </g>
 </g>
</svg>
