<svg width="100" height="100" xmlns="http://www.w3.org/2000/svg" version="1.0" preserveAspectRatio="xMidYMid meet">
 <g>
  <title>Layer 1</title>
  <g stroke="null" transform="rotate(180 50.3599 50.8204) translate(0 225) scale(0.1 -0.1)" fill="#FFFFFF" id="svg_1">
   <path stroke="null" d="m213.5385,1947.65982c-128.27911,-128.27911 -197.0473,-200.13305 -197.0473,-205.86373c0,-10.57972 391.00885,-403.35185 401.58857,-403.35185c17.19205,0 17.19205,-3.52657 17.19205,403.35185c0,406.87843 0,403.35185 -17.63287,403.35185c-3.52657,0 -95.21749,-88.60516 -204.10045,-197.48812zm186.46758,-206.74538l0,-338.55106l-169.71635,169.71635l-169.71635,169.71635l168.39389,168.39389c93.01338,93.01338 169.27553,168.83471 169.71635,168.83471c0.88164,0 1.32247,-152.08349 1.32247,-338.11024z" id="svg_2"/>
   <path stroke="null" d="m768.97384,1947.65982c-129.16076,-129.16076 -197.0473,-200.13305 -197.0473,-205.86373c0,-10.57972 391.00885,-403.35185 401.58857,-403.35185c17.19205,0 17.19205,-3.08575 17.19205,403.35185c0,406.87843 0,403.35185 -17.63287,403.35185c-3.52657,0 -95.21749,-88.60516 -204.10045,-197.48812zm186.46758,-206.74538l0,-338.55106l-169.71635,169.71635l-169.71635,169.71635l168.39389,168.39389c93.01338,93.01338 169.27553,168.83471 169.71635,168.83471c0.88164,0 1.32247,-152.08349 1.32247,-338.11024z" id="svg_3"/>
  </g>
 </g>

</svg>
