<svg xmlns="http://www.w3.org/2000/svg" version="1.0" width="100" height="100" preserveAspectRatio="xMidYMid meet" style=""><rect id="backgroundrect" width="100%" height="100%" x="0" y="0" fill="none" stroke="none" class="" style=""/>


<g class="currentLayer" style=""><title>Layer 1</title><g transform="translate(0,512) scale(0.10000000149011612,-0.10000000149011612) " fill="#10AC84" stroke="none" id="svg_1" class="selected">
<path d="M323.13468857114407,5115.972460568319 c-40.652932266538805,-7.17368760620707 -78.80414562436755,-43.236009086058836 -86.30930235049776,-81.8188154005239 c-1.6678126058067209,-7.949221401472701 -2.2932423329842413,-113.42181755759827 -2.2932423329842413,-337.7449678381816 c0,-220.2515978554388 -0.6254297271775208,-326.69361125564643 -2.084765757258401,-327.46914505091195 c-5.0034378174201635,-2.9082517322461094 -19.596798118228968,-23.653780755601698 -27.31043142008505,-38.38892286564865 c-40.652932266538805,-79.49221401472698 6.879726998952723,-175.07675428121578 99.23485004549985,-199.3121853832668 c20.013751269680654,-5.428736566859407 57.74801147605772,-6.204270362125033 76.09395013993161,-1.9388344881640744 c29.395197177343455,6.979804157390663 54.20390968871842,19.969995228089957 74.84309068557656,39.16445666091429 c55.66324571879929,51.572997385164335 61.08363668767113,133.97346313213745 12.717071119276246,190.00577984007916 l-10.423828786292,12.020773826617258 l0,323.00982572813456 c0,200.08771917853235 -0.8339063029033604,328.2446788461778 -2.084765757258401,336.58166714528306 c-1.459336030080881,9.112522094371146 -4.794961241694324,19.000577984007926 -10.423828786292,29.47028422009392 c-22.515470178390725,42.65435873960962 -71.50746547396317,65.33872225112925 -121.95879679961642,56.42008360557455 zm50.45133132565329,-45.17484357422291 c12.717071119276246,-5.234853118043 25.642618814278332,-17.255626944660253 32.31386923750521,-29.664167668910324 l4.794961241694324,-9.112522094371146 l1.0423828786292004,-338.5205016334472 l1.0423828786292004,-338.32661818463083 l11.883164816372885,-12.602424173066474 c22.098517026939042,-22.878246960336067 31.47996293460185,-44.39930977895727 31.47996293460185,-72.51240985733635 c0.20847657572584075,-27.143682834297028 -8.756016180485283,-48.47086220410184 -28.769767450165936,-68.63474088100823 c-19.596798118228968,-19.582228330457145 -40.23597911508712,-29.664167668910324 -67.75488711089801,-33.34795319642205 c-64.41926189928459,-8.72475519673833 -125.08594543550404,41.29717459789476 -125.08594543550404,103.14599477032867 c0,23.653780755601698 11.466211664921206,50.02192979463309 30.64605663169849,69.41027467627384 l12.091641392098719,12.602424173066474 l1.0423828786292004,337.35720094054886 l1.0423828786292004,337.55108438936514 l5.420390968871843,10.663589684902405 c7.088203574678564,14.153491763597737 15.844219755163843,23.266013857968872 28.769767450165936,29.858051117726728 c19.38832154250313,9.694172440820365 39.81902596363546,10.469706236086 60.041253809041926,2.1327179369804807 z" id="svg_2"/>
<path d="M339.3958614777596,4703.0007145893715 c-3.544101787339282,-0.7755337952656297 -8.54753960475944,-3.877668976328147 -10.840781937743683,-6.5920372597578485 c-4.378008090242641,-5.234853118043 -4.378008090242641,-6.204270362125033 -4.378008090242641,-185.9342274149347 l0,-180.8932577457081 l-11.049258513469521,-5.816503464492218 c-24.808712511374964,-12.990191070699293 -37.52578363065122,-38.38892286564865 -32.31386923750521,-64.36930500704726 c2.7101954844359213,-13.765724865964925 7.713633301856084,-22.49048006270325 18.345938663873927,-32.37853595234005 c13.967930573631284,-13.184074519515699 24.808712511374964,-17.061743495843846 46.907229538314006,-17.061743495843846 c16.26117290661552,0 20.222227845406483,0.7755337952656297 29.186720601617605,5.234853118043 c23.76632963274577,11.439123480168034 37.52578363065122,33.92960354287128 36.06644760057034,58.74668499137144 c-0.4169531514516806,8.918638645554736 -2.2932423329842413,16.673976598211024 -5.420390968871843,22.49048006270325 c-5.628867544597681,10.857473133718813 -19.38832154250313,23.847664204418102 -30.020626904520963,28.50086697601188 l-7.713633301856084,3.2960186298789247 l-0.20847657572584075,178.5666563599112 c0,122.1465727543366 -0.6254297271775208,180.50549084807525 -2.2932423329842413,184.5770432732198 c-3.544101787339282,9.694172440820365 -14.384883725082968,14.54125866123055 -26.268048541455848,11.633006928984441 zm16.886602633793046,-414.7166970182954 c5.211914393146,-2.3266013857968875 11.674688240647045,-12.21465727543366 11.674688240647045,-18.22504418874229 c0,-8.918638645554736 -12.30011796782456,-20.35776212572276 -21.890040451213206,-20.35776212572276 c-6.462773847501043,0 -17.09507920951888,6.010386913308629 -19.596798118228968,10.857473133718813 c-9.172969331936963,18.6128110863751 9.798399059114482,36.256204928668176 29.812150328795127,27.725333180746254 z" id="svg_3"/>
<path d="M28.9742402219837,4952.140946318455 c-2.5017189087100817,-0.3877668976328154 -7.088203574678564,-3.2960186298789247 -10.215352210566166,-6.398153810941442 c-8.54753960475944,-8.143104850289108 -8.13058645330776,-19.582228330457145 0.8339063029033604,-27.725333180746254 l6.462773847501043,-6.204270362125033 l75.05156726130244,0 l75.05156726130244,0 l6.462773847501043,6.204270362125033 c9.381445907662805,8.530871747921923 9.381445907662805,19.776111779273545 0,28.306983527195474 l-6.462773847501043,6.204270362125033 l-71.50746547396317,0.193883448816408 c-39.19359623645793,0.193883448816408 -73.38375465549571,0 -75.67699698847994,-0.581650346449223 z" id="svg_4"/>
<path d="M113.19877681522306,4867.026112288052 c-13.550977422179605,-6.785920708574257 -15.21879002798633,-23.459897306785287 -3.544101787339282,-32.57241940115643 c6.254297271775201,-4.8470862204101826 7.296680150404402,-5.040969669226591 36.691877327747854,-5.040969669226591 l30.22910348024681,0 l6.0458206960493595,5.622620015675811 c11.257735089195362,10.469706236086 7.5051567261302425,28.306983527195474 -6.879726998952723,32.96018629878925 c-10.006875634840327,3.2960186298789247 -55.66324571879929,2.5204848346132973 -62.54297271775202,-0.969417244082037 z" id="svg_5"/>
<path d="M642.1038494316792,4827.473888729503 c-26.476525117181684,-3.489902078695332 -47.32418268976569,-13.959608314781326 -66.71250423226883,-33.154069747605654 c-12.717071119276246,-12.990191070699293 -19.596798118228968,-24.041547653234517 -25.434142238552493,-41.491058046711174 c-3.3356252116134417,-10.663589684902405 -3.7525783630651204,-19.969995228089957 -3.7525783630651204,-110.5135658253522 c0,-96.55395751057087 0.20847657572584075,-99.26832579400053 4.586484665968482,-112.45240031351622 c11.466211664921206,-33.73572009405487 42.32074487234554,-60.879402928351894 79.22109877581924,-69.79804157390664 c16.886602633793046,-4.071552425144554 82.55672398743265,-4.071552425144554 99.65180319695155,0 c18.345938663873927,4.459319322777368 35.02406472194114,13.765724865964925 49.825901598475774,27.337566283113436 c20.847657572584,19.582228330457145 32.52234581323104,44.39930977895727 32.52234581323104,69.60415812509022 c0,9.500288992003963 -0.8339063029033604,11.633006928984441 -6.0458206960493595,16.673976598211024 c-3.3356252116134417,3.1021351810625166 -8.339063029033603,5.816503464492218 -11.049258513469521,5.816503464492218 c-18.345938663873927,0.969417244082037 -24.391759359923295,-5.040969669226591 -27.518907995810892,-27.337566283113436 c-3.1271486358876004,-20.745529023355587 -17.720508936696408,-39.16445666091429 -38.56816650928042,-48.276978755285434 c-11.257735089195362,-4.8470862204101826 -12.925547695002086,-5.040969669226591 -50.24285474992744,-5.040969669226591 l-38.56816650928042,0 l-12.30011796782456,5.816503464492218 c-14.801836876534644,6.979804157390663 -26.89347826863337,19.194461432824326 -32.52234581323104,33.154069747605654 c-3.961054938790962,10.08193933845318 -4.169531514516802,14.735142110046956 -4.169531514516802,106.05424650257481 l0,95.39065681767241 l5.420390968871843,10.663589684902405 c6.462773847501043,13.184074519515699 17.512032360970565,23.847664204418102 31.063009783150175,30.633584912992347 c10.006875634840327,5.040969669226591 11.883164816372885,5.234853118043 47.9496124169432,5.816503464492218 c34.19015841903776,0.581650346449223 38.56816650928042,0.3877668976328154 49.40894844702409,-3.489902078695332 c23.76632963274577,-8.143104850289108 39.402072812183775,-27.337566283113436 43.15465117524888,-53.31794842451202 c1.8762891815325609,-11.439123480168034 3.1271486358876004,-14.347375212414143 8.54753960475944,-18.80669453519151 c9.172969331936963,-7.755337952656295 20.430704421132333,-7.561454503839886 28.97824402589177,0.581650346449223 c5.628867544597681,5.234853118043 6.462773847501043,7.17368760620707 6.462773847501043,17.061743495843846 c0,23.847664204418102 -11.674688240647045,49.634162897000266 -30.85453320742433,67.85920708574257 c-26.268048541455848,24.817081448500133 -44.405510629603924,31.21523525944157 -93.18902934945054,32.18465250352363 c-18.345938663873927,0.3877668976328154 -38.98511966073208,0 -45.86484665968482,-0.969417244082037 z" id="svg_6"/>
<path d="M909.9962492393837,4826.6983549342385 c-14.801836876534644,-3.1021351810625166 -22.306993602664885,-6.785920708574257 -32.7308223889569,-16.673976598211024 c-12.30011796782456,-11.439123480168034 -18.13746208814808,-23.459897306785287 -18.971368391051445,-39.74610700736349 c-1.459336030080881,-24.817081448500133 12.30011796782456,-47.307561511203396 36.06644760057034,-58.74668499137144 c8.964492756211122,-4.459319322777368 12.925547695002086,-5.234853118043 29.186720601617605,-5.234853118043 c15.844219755163843,0 20.222227845406483,0.7755337952656297 28.97824402589177,4.8470862204101826 c19.80527469395481,9.30640554318755 32.52234581323104,25.010964897316544 36.27492417629616,44.59319322777367 c8.54753960475944,43.042125637242435 -32.7308223889569,80.26774780999266 -78.80414562436755,70.9613422668051 zm28.97824402589177,-45.950377369488535 c7.088203574678564,-6.398153810941442 8.54753960475944,-14.929025558863364 4.169531514516802,-23.847664204418102 c-2.5017189087100817,-4.8470862204101826 -13.134024270727924,-10.857473133718813 -19.596798118228968,-10.857473133718813 c-9.589922483388643,0 -21.890040451213206,11.439123480168034 -21.890040451213206,20.35776212572276 c0,5.622620015675811 6.254297271775201,15.898442802945402 11.049258513469521,18.031160739925888 c9.172969331936963,4.071552425144554 19.38832154250313,2.714368283429703 26.268048541455848,-3.6837855275117395 z" id="svg_7"/>
<path d="M109.6546750278838,4781.717394808833 c-11.883164816372885,-9.30640554318755 -9.798399059114482,-26.174265590214993 3.961054938790962,-32.766302849972845 c7.296680150404402,-3.489902078695332 51.91066735573418,-4.071552425144554 62.126019566300336,-0.7755337952656297 c14.384883725082968,4.653202771593776 18.13746208814808,22.49048006270325 6.879726998952723,32.96018629878925 l-6.0458206960493595,5.622620015675811 l-30.22910348024681,0 c-29.395197177343455,0 -30.43758005597266,-0.193883448816408 -36.691877327747854,-5.040969669226591 z" id="svg_8"/>
<path d="M28.9742402219837,4703.970131833453 c-2.5017189087100817,-0.3877668976328154 -7.088203574678564,-3.2960186298789247 -10.215352210566166,-6.398153810941442 c-8.54753960475944,-8.143104850289108 -8.13058645330776,-19.582228330457145 0.8339063029033604,-27.725333180746254 l6.462773847501043,-6.204270362125033 l75.05156726130244,0 l75.05156726130244,0 l6.462773847501043,6.204270362125033 c9.381445907662805,8.530871747921923 9.381445907662805,19.776111779273545 0,28.306983527195474 l-6.462773847501043,6.204270362125033 l-71.50746547396317,0.193883448816408 c-39.19359623645793,0.193883448816408 -73.38375465549571,0 -75.67699698847994,-0.581650346449223 z" id="svg_9"/>
<path d="M113.19877681522306,4618.85529780305 c-13.550977422179605,-6.785920708574257 -15.21879002798633,-23.459897306785287 -3.544101787339282,-32.57241940115643 c6.254297271775201,-4.8470862204101826 7.296680150404402,-5.040969669226591 36.691877327747854,-5.040969669226591 l30.22910348024681,0 l6.0458206960493595,5.622620015675811 c11.257735089195362,10.469706236086 7.5051567261302425,28.306983527195474 -6.879726998952723,32.96018629878925 c-10.006875634840327,3.2960186298789247 -55.66324571879929,2.5204848346132973 -62.54297271775202,-0.969417244082037 z" id="svg_10"/>
<path d="M109.6546750278838,4533.546580323832 c-11.883164816372885,-9.30640554318755 -9.798399059114482,-26.174265590214993 3.961054938790962,-32.766302849972845 c7.296680150404402,-3.489902078695332 51.91066735573418,-4.071552425144554 62.126019566300336,-0.7755337952656297 c14.384883725082968,4.653202771593776 18.13746208814808,22.49048006270325 6.879726998952723,32.96018629878925 l-6.0458206960493595,5.622620015675811 l-30.22910348024681,0 c-29.395197177343455,0 -30.43758005597266,-0.193883448816408 -36.691877327747854,-5.040969669226591 z" id="svg_11"/>
<path d="M28.9742402219837,4455.799317348452 c-2.5017189087100817,-0.3877668976328154 -7.088203574678564,-3.2960186298789247 -10.215352210566166,-6.398153810941442 c-8.54753960475944,-8.143104850289108 -8.13058645330776,-19.582228330457145 0.8339063029033604,-27.725333180746254 l6.462773847501043,-6.204270362125033 l75.05156726130244,0 l75.05156726130244,0 l6.462773847501043,6.204270362125033 c9.381445907662805,8.530871747921923 9.381445907662805,19.776111779273545 0,28.306983527195474 l-6.462773847501043,6.204270362125033 l-71.50746547396317,0.193883448816408 c-39.19359623645793,0.193883448816408 -73.38375465549571,0 -75.67699698847994,-0.581650346449223 z" id="svg_12"/>
</g></g></svg>