<svg xmlns="http://www.w3.org/2000/svg" version="1.0" width="100" height="100" preserveAspectRatio="xMidYMid meet"><rect id="backgroundrect" width="100%" height="100%" x="0" y="0" fill="none" stroke="none"/>


<g class="currentLayer" style=""><title>Layer 1</title><g transform="translate(0,512) scale(0.10000000149011612,-0.10000000149011612) " fill="#10AC84" stroke="none" id="svg_1" class="">
<path d="M473.3627496767359,5115.25659641222 c-19.00290189220377,-5.225585254981597 -37.61399137425901,-17.200884797647753 -51.52333193453187,-33.313106000507695 c-11.558466099381675,-13.499428575369135 -31.54089901695676,-50.94945623607059 -213.34185732587534,-401.06366831983786 c-110.29519345681157,-212.50713370258515 -202.56701604679068,-392.5720922804926 -205.1137967127561,-400.1927374440076 c-6.464904767450767,-20.031410144096135 -6.464904767450767,-58.57010139958542 0.19590620507426645,-79.25470970055424 c12.146184714604468,-38.32095853653173 40.55258445037299,-66.84394471997297 76.5993261840379,-77.0773825109786 c10.187122663861816,-2.830525346448367 60.73092357302235,-3.2659907843635 418.2597478335571,-3.2659907843635 c447.8415847997712,0 415.90887337266594,-0.8709308758302684 442.74802346784037,13.499428575369135 c16.84793363638685,8.927041477260232 37.80989757933325,32.44217512467742 46.42977060260097,52.03811983085844 c13.517528150124331,30.48258065405933 15.67249640594125,64.44888481143973 6.073092357302234,93.62506915175368 c-5.6812799471537065,17.418617516605327 -291.7043393555816,569.3710600740368 -298.56105653318093,576.3385070806788 c-6.464904767450767,6.314248849769432 -13.517528150124331,6.096516130811868 -19.786526712500827,-0.8709308758302684 c-3.5263116913367822,-3.9191889412361984 -4.7017489217823805,-7.185179725599699 -4.114030306559579,-11.322101385793466 c0.39181241014853335,-3.2659907843635 65.82448490495327,-131.29282953141262 145.55831037017938,-284.5766636775396 c79.53791926015182,-153.2838341461269 146.34193519047642,-283.27026736379435 148.10509103614487,-288.7135853377333 c13.125715739975796,-38.32095853653173 -1.5672496405941287,-84.04482951762071 -33.6958672727737,-104.94717053754712 c-20.17833912264936,-13.281695856411572 5.87718615222797,-12.410764980581302 -437.85036834098383,-11.975299542666162 l-405.3299382986557,0.6531981568727039 l-10.187122663861816,4.5723870981089005 c-22.137401173392018,10.233437791005635 -38.20170998948181,28.740718902398797 -46.821583012749485,54.21544702043411 c-4.7017489217823805,14.152626732241831 -4.897655126856642,39.62735485027712 -0.19590620507426645,54.43317973939166 c4.897655126856642,15.676755764944797 401.0200017870219,777.5235393974705 410.4234996305865,789.4988389401369 c16.064308816089788,20.031410144096135 45.45023957722964,31.353511529889595 69.54670280136432,26.345658993865563 c15.67249640594125,-3.2659907843635 33.6958672727737,-13.281695856411572 42.90345891126418,-23.732866366374765 c4.114030306559579,-4.5723870981089005 25.859619069803067,-43.982009229428485 48.58473885841787,-87.74628573989933 c22.72511978861482,-43.76427651047089 43.09936511633846,-81.21430417117234 45.45023957722964,-83.17389864179046 c2.154968255816922,-2.1773271895756663 6.073092357302234,-3.9191889412361984 8.815779228341956,-3.9191889412361984 c6.073092357302234,0 14.301152970421393,9.1447741962178 14.301152970421393,16.11222120285993 c0,3.2659907843635 -17.631558456683912,39.40962213131957 -42.119834090967124,86.65762214511155 c-35.26311691336783,67.93260831476078 -44.274802346784035,83.39163136074801 -54.266018805571576,94.71373274654152 c-26.055525274877333,29.39391705927151 -65.43267249480472,42.022414758810356 -101.08760181832108,32.44217512467742 z" id="svg_2"/>
<path d="M482.7662475203005,5024.026587168998 c-5.289467537005171,-3.9191889412361984 -40.55258445037299,-70.32766822329403 -182.58458312921556,-343.3644977960826 c-245.66638116312913,-472.9154655758348 -222.94126137451428,-428.0625254705762 -222.94126137451428,-439.3846268563695 c0,-11.7575668237086 5.6812799471537065,-23.079668209502067 14.301152970421393,-28.305253464483663 c9.011685433416222,-5.225585254981597 79.34201305507762,-6.7497142876845695 90.1168543341622,-1.959594470618101 c8.032154408044896,3.9191889412361984 10.970747484158872,11.539834104751034 8.032154408044896,20.902341019926386 c-3.13449928118825,9.797972353090502 -8.619873023267688,11.104368666835898 -46.2338643975267,11.104368666835898 c-19.19880809727804,0 -34.8713045032193,0.6531981568727039 -34.8713045032193,1.3063963137454002 c0,1.959594470618101 388.87381707241735,749.8714840898595 389.85334809778874,749.8714840898595 c0.9795310253713263,0 389.85334809778874,-747.9118896192417 389.85334809778874,-749.8714840898595 c0,-0.6531981568727039 -147.71327862599628,-1.3063963137454002 -328.3387997044693,-1.3063963137454002 l-328.3387997044693,0 l-5.87718615222797,-6.531981568727 c-4.7017489217823805,-5.443317973939168 -5.6812799471537065,-7.838377882472399 -4.50584271670811,-12.628497699538864 c0.5877186152227988,-3.2659907843635 2.9385930761139853,-7.838377882472399 5.093561331930908,-10.233437791005635 c3.7222178964110477,-4.354654379151333 6.464904767450767,-4.354654379151333 338.33001616325686,-4.354654379151333 c313.05811570867655,0 334.80370447192007,0.21773271895756754 340.68089062414805,3.701456222278636 c8.619873023267688,5.225585254981597 14.301152970421393,16.547686640775066 14.301152970421393,28.305253464483663 c0,11.322101385793466 23.11693219876335,-33.96630415738039 -222.94126137451428,439.3846268563695 c-142.0319986788426,273.2545622917462 -177.09920938713614,339.4453088548465 -182.38867692414132,343.3644977960826 c-9.011685433416222,6.7497142876845695 -22.72511978861482,6.7497142876845695 -31.54089901695676,0 z" id="svg_3"/>
<path d="M537.2281725309466,4847.8808175323275 c-3.13449928118825,-2.830525346448367 -170.83021082475966,-267.5935115988494 -178.07874041250753,-281.5284056121338 c-2.5467806659654535,-4.790119817066465 -3.5263116913367822,-9.1447741962178 -2.5467806659654535,-12.846230418496432 c2.5467806659654535,-11.539834104751034 5.485373742079439,-12.193032261623737 56.02917465123998,-12.193032261623737 c42.511646501115656,0 46.62567680767522,-0.21773271895756754 46.62567680767522,-3.701456222278636 c0,-1.959594470618101 -7.640341997896361,-61.61835946499135 -16.84793363638685,-132.16376040724296 c-15.084777790718457,-114.09194473376495 -16.652027431312582,-129.11550234183704 -14.301152970421393,-133.90562215890347 c3.3304054862625168,-6.531981568727 11.36255989430741,-9.797972353090502 17.631558456683912,-6.967447006642134 c3.13449928118825,1.3063963137454002 38.20170998948181,51.38492167398572 99.7162583828012,143.05039635512134 c103.04666386906374,153.50156686508444 102.06713284369236,151.9774378323815 91.09638535953351,161.77541018547197 c-5.093561331930908,4.354654379151333 -7.4444357928220946,4.5723870981089005 -49.36836367871493,4.5723870981089005 l-43.88298993663549,0 l1.1754372304455942,14.805824889114527 c5.289467537005171,63.142488497694316 16.064308816089788,247.9975668926684 14.692965380569923,252.13448855286222 c-3.13449928118825,8.927041477260232 -15.280683995792723,12.628497699538864 -21.941494968317745,6.967447006642134 zm-18.02337086683244,-191.16932724474358 c-3.918124101485312,-61.182894027076244 -6.073092357302234,-102.98757606692901 -4.897655126856642,-106.03583413233495 c2.7426868710397185,-8.273843320387533 7.640341997896361,-9.362506915175366 45.84205198737815,-9.362506915175366 c20.17833912264936,0 36.24264793873914,-0.8709308758302684 35.85083552859062,-1.7418617516605355 c-1.7631558456683962,-5.007852536024034 -129.8858139642381,-194.21758531014947 -130.473532579461,-192.47572355848894 c-0.19590620507426645,1.0886635947878334 5.6812799471537065,49.20759448441007 13.321621945050069,106.90676500816525 c7.640341997896361,57.91690324271275 13.321621945050069,107.12449772712277 12.733903329827264,109.08409219774089 c-2.5467806659654535,8.927041477260232 -6.073092357302234,9.797972353090502 -49.36836367871493,10.886635947878334 l-41.92392788589285,1.0886635947878334 l62.2981732136165,98.85065440673525 c57.400518086759824,91.23000924322044 62.2981732136165,98.19745624986258 62.885891828839284,91.44774196217804 c0.19590620507426645,-4.136921660193767 -2.5467806659654535,-52.90905070668872 -6.2689985623765,-108.64862675982577 z" id="svg_4"/>
</g></g></svg>
