<svg width="100" height="100" xmlns="http://www.w3.org/2000/svg" preserveAspectRatio="xMidYMid meet" version="1.0">

 <g>
  <title>Layer 1</title>
  <g stroke="null" id="svg_1" fill="#10AC84" transform="translate(0 230) scale(0.1 -0.1)">
   <path stroke="null" id="svg_2" d="m714.09191,2288.68195c-13.42087,-4.79317 -34.99013,-15.33814 -47.93168,-23.48652c-28.75901,-18.69336 -227.19617,-217.13051 -227.19617,-227.67548c0,-11.98292 19.17267,-32.59354 29.71764,-32.59354c6.71044,0 46.01441,35.46944 115.99467,104.49106c120.30852,118.87057 131.81212,127.01895 189.80946,129.41554c122.7051,5.7518 201.31306,-115.99467 147.62958,-229.11343c-11.5036,-23.96584 -225.2789,-243.97225 -261.22766,-268.89673c-29.23833,-20.13131 -56.55938,-28.75901 -92.50814,-28.75901c-38.34534,0 -66.14572,9.58634 -98.73926,34.03149c-27.32106,20.61062 -40.26261,23.48652 -51.76622,11.98292c-11.98292,-11.98292 -13.90019,-25.88311 -5.27248,-38.82466c11.02429,-17.25541 61.83187,-48.89031 93.46678,-57.99733c34.03149,-10.06565 90.59088,-10.06565 124.62237,0c46.49373,13.90019 79.08727,40.74193 206.58554,169.19883c135.16734,136.60529 147.15026,153.38138 158.17455,218.56846c15.33814,91.07019 -34.51081,185.97492 -119.8292,228.1548c-33.55218,16.29677 -38.82466,17.73472 -86.27703,19.17267c-39.30398,0.95863 -56.08007,-0.95863 -75.25274,-7.66907z"/>
   <path stroke="null" id="svg_3" d="m382.88399,1940.21863c-57.0387,-12.46224 -71.4182,-23.96584 -212.81666,-164.88498c-115.51535,-115.51535 -134.20871,-136.12597 -147.15026,-163.44703c-52.72485,-110.24287 -9.58634,-237.74114 99.21858,-291.42462c35.46944,-17.73472 36.90739,-17.73472 93.94609,-17.73472c56.08007,0 58.95597,0.47932 91.07019,16.29677c29.23833,13.90019 47.45236,30.19696 139.96051,121.74647c58.95597,58.47665 107.84628,109.76355 109.76355,114.55672c2.39658,8.6277 -5.27248,27.80037 -14.3795,33.55218c-14.3795,9.58634 -28.75901,-1.43795 -131.81212,-103.05311c-96.82199,-95.86336 -111.2015,-108.3256 -136.12597,-117.43262c-75.25274,-28.27969 -159.13318,1.91727 -196.51989,69.98025c-25.40379,46.97305 -26.36242,99.21858 -2.39658,149.54684c11.5036,23.96584 225.2789,243.97225 261.22766,268.89673c29.23833,20.13131 56.55938,28.75901 92.50814,28.75901c38.34534,0 66.14572,-9.58634 98.73926,-34.03149c27.32106,-20.61062 40.26261,-23.48652 51.76622,-11.98292c21.08994,21.56926 11.98292,41.70056 -31.63491,69.98025c-50.32826,32.11423 -110.24287,43.61783 -165.3643,30.67628z"/>
  </g>
 </g>
</svg>
