<svg width="100" height="100" xmlns="http://www.w3.org/2000/svg" style="vector-effect: non-scaling-stroke;" stroke="null" preserveAspectRatio="xMidYMid meet" version="1.0">
 <defs style="vector-effect: non-scaling-stroke;" stroke="null">
  <filter style="vector-effect: non-scaling-stroke;" stroke="null" id="svg_1_blur">
   <feGaussianBlur style="vector-effect: non-scaling-stroke;" stroke="null" stdDeviation="0" in="SourceGraphic"/>
  </filter>
 </defs>
 <g stroke="null">
  <title stroke="null">Layer 1</title>
  <g stroke="null" transform="translate(0 225) scale(0.1 -0.1)" stroke-width="0" filter="url(#svg_1_blur)" id="svg_1" fill="#10AC84">
   <path stroke="null" id="svg_2" d="m165.49586,2043.0912l-166.09723,-2.3394l0,-290.08531l0,-290.08531l500.6311,0l500.6311,0l0,290.08531l0,290.08531l-334.53386,2.3394c-183.87665,1.40364 -409.39459,1.40364 -500.6311,0zm145.04265,-292.42471l0,-254.99434l-136.62082,0.93576l-137.0887,1.40364l-1.40364,247.97615c-0.46788,136.62082 0,250.78343 1.40364,254.05858c1.40364,4.21092 33.68733,5.61455 138.02446,5.61455l135.68506,0l0,-254.99434zm336.87326,0l0,-254.99434l-147.38205,0l-147.38205,0l0,254.99434l0,254.99434l147.38205,0l147.38205,0l0,-254.99434zm315.81868,0l0,-252.65495l-136.62082,-1.40364l-137.0887,-0.93576l0,254.99434l0,254.99434l137.0887,-0.93576l136.62082,-1.40364l0,-252.65495z"/>
   <path stroke="null" id="svg_3" d="m130.4049,1875.59033c-10.29335,-5.14667 -23.39398,-14.03639 -29.00853,-20.11882c-29.47641,-31.81581 -41.64128,-102.9335 -28.07277,-157.20752c14.50427,-55.67766 41.1734,-81.41104 87.96135,-84.68619c75.3286,-5.61455 115.09836,47.25583 110.88745,146.44629c-2.3394,52.87039 -16.84366,87.49347 -45.85219,107.61229c-24.79762,17.31154 -68.77829,21.05458 -95.9153,7.95395zm58.48494,-40.70552c19.18306,-9.82547 30.41217,-42.10916 29.94429,-88.89711c0,-20.5867 -2.80728,-45.38431 -6.08243,-54.7419c-11.69699,-35.09096 -46.78795,-47.72371 -68.31041,-24.32974c-15.44002,16.84366 -21.05458,38.834 -21.05458,83.75044c0,41.64128 9.82547,70.64981 28.54065,83.75044c13.56851,9.35759 19.65094,9.35759 36.96248,0.46788z"/>
   <path stroke="null" id="svg_4" d="m457.45269,1875.12245c-39.76976,-18.2473 -59.4207,-59.88858 -59.4207,-126.79535c0,-54.27403 11.69699,-89.83287 37.43036,-112.29109c21.52246,-19.18306 33.68733,-23.39398 65.03525,-23.39398c63.16374,0 100.5941,47.72371 101.52986,128.66687c0.46788,69.71405 -19.65094,115.56624 -58.95282,133.81355c-24.79762,11.22911 -60.82434,11.22911 -85.62195,0zm68.31041,-46.32007c21.99034,-21.99034 29.94429,-84.68619 16.84366,-129.60263c-8.88971,-29.00853 -23.39398,-44.44856 -42.57704,-44.44856c-28.54065,0 -49.12735,39.30188 -49.12735,93.57591c0,73.45709 39.30188,116.03412 74.86072,80.47528z"/>
   <path stroke="null" id="svg_5" d="m722.2725,1959.80864c0,-52.40251 23.39398,-103.40138 55.20978,-121.64868c50.99887,-28.54065 123.98808,-8.42183 144.10689,39.30188c10.29335,24.32974 7.95395,61.7601 -4.21092,83.75044l-10.76123,18.71518l-58.01706,1.40364c-55.67766,1.40364 -58.48494,0.93576 -66.43889,-9.35759l-8.42183,-10.76123l0,10.76123c0,9.35759 -2.3394,10.29335 -25.73337,10.29335l-25.73337,0l0,-22.45822zm142.23538,-15.44002c26.20125,-31.34793 6.08243,-74.39285 -34.62309,-74.39285c-15.44002,0 -22.45822,2.80728 -33.21945,13.56851c-29.47641,29.94429 -8.88971,75.3286 34.62309,75.3286c17.77942,0 22.9261,-2.3394 33.21945,-14.50427z"/>
   <path stroke="null" id="svg_6" d="m736.30889,1727.27252l0,-21.05458l63.16374,0c48.65947,0 63.16374,-1.40364 63.16374,-6.08243c0,-3.27516 -1.87152,-7.95395 -4.21092,-10.76123c-1.87152,-2.3394 -22.9261,-41.64128 -46.78795,-87.02559l-43.04492,-83.28256l28.07277,0l27.60489,0l47.25583,93.10803c39.30188,77.668 47.25583,96.85106 47.25583,114.63048l0,21.52246l-91.23651,0l-91.23651,0l0,-21.05458z"/>
  </g>
 </g>
</svg>
