<svg width="100" height="100" xmlns="http://www.w3.org/2000/svg" stroke="null" style="vector-effect: non-scaling-stroke;" version="1.0" preserveAspectRatio="xMidYMid meet">
 <g stroke="null">
  <title stroke="null">Layer 1</title>
  <g stroke="null" transform="translate(0 512) scale(0.1 -0.1)" fill="#10AC84" id="svg_1">
   <path stroke="null" d="m898.7359,5102.74764c-30.05073,-10.08696 -34.67392,-13.65942 -34.67392,-26.05797c0,-18.07246 -14.07971,-47.91305 -26.26812,-55.89856c-4.83333,-3.15218 -5.46377,-3.15218 -11.76812,2.10145c-11.97826,10.08696 -16.60145,8.19565 -42.23913,-17.02174l-22.9058,-22.69565l-11.55797,0.63044c-8.4058,0.63044 -13.65942,-0.42029 -20.5942,-3.78261c-11.55797,-5.46377 -33.62319,-28.57971 -36.98551,-38.66667c-1.68116,-5.67391 -3.99275,-7.98551 -9.87681,-9.87681c-10.71739,-3.57246 -35.30435,-27.52899 -39.7174,-38.66667c-2.73188,-7.35507 -4.83333,-9.87681 -10.71739,-11.76812c-10.50725,-3.36232 -33.41305,-25.63768 -39.08696,-37.82609c-3.57246,-7.98551 -6.0942,-10.92754 -11.55797,-12.6087c-3.99275,-1.26087 -13.65942,-8.61594 -21.64493,-16.18116l-14.71015,-13.65942l-21.64493,21.22464c-18.91304,18.7029 -22.69565,21.43478 -28.78986,21.43478c-6.51449,0 -12.39855,-5.25362 -70.6087,-63.67392c-74.8116,-74.60146 -71.65942,-69.13769 -50.64493,-90.99276l13.02899,-13.65942l-12.81884,-12.81884l-13.02899,-13.02899l-8.4058,7.77536c-10.71739,9.66667 -22.27536,13.02899 -34.25362,9.87681c-7.56522,-2.10145 -14.71015,-7.98551 -45.18116,-38.45652c-29.63044,-29.84058 -36.35508,-37.61594 -38.24638,-44.76087c-1.8913,-6.72464 -3.57246,-9.03623 -7.77536,-10.08696c-8.19565,-2.10145 -20.80435,-10.71739 -25.84783,-17.86232c-16.18116,-22.48551 -13.65942,-48.54348 6.72464,-70.81885l10.50725,-11.55797l-100.86957,-101.28986c-109.27537,-109.69566 -109.48552,-109.9058 -114.31885,-137.64494c-1.68116,-9.45652 -1.68116,-16.60145 0,-26.05797c3.78261,-21.43478 11.34783,-33.83334 35.93478,-59.26088l22.48551,-23.11594l6.0942,5.04348c3.36232,2.73188 8.82609,8.19565 12.18841,12.18841l6.0942,6.93478l-21.0145,21.43478c-11.76812,11.76812 -22.9058,24.7971 -25.00725,28.78986c-5.46377,10.50725 -5.04348,32.15218 0.63044,43.07971c2.52174,4.62319 18.7029,22.48551 36.14493,39.92754l31.73189,31.52174l4.62319,-4.62319l4.41304,-4.62319l-10.50725,-11.55797c-15.76087,-17.23188 -20.80435,-35.0942 -14.92029,-54.2174l2.3116,-8.19565l-13.86957,-14.07971l-14.07971,-14.07971l11.97826,-12.18841l12.18841,-11.97826l14.07971,14.07971l14.07971,13.86957l8.19565,-2.3116c18.91304,-5.67391 37.19566,-0.63044 54.00725,14.71015l11.76812,10.71739l13.23913,-13.02899c21.85508,-20.80435 16.3913,-23.74638 90.78262,50.64493l63.67392,63.25363l11.55797,-10.50725c18.07246,-16.60145 36.14493,-21.0145 56.94928,-13.86957c12.81884,4.2029 27.1087,18.28261 30.68116,29.84058c2.3116,7.56522 3.57246,8.82609 11.13768,10.92754c7.14493,1.8913 14.92029,8.61594 44.76087,38.24638c30.26087,30.26087 36.35508,37.61594 38.24638,45.18116c3.36232,11.97826 0,23.53623 -9.66667,34.25362l-7.77536,8.4058l13.02899,13.02899l12.81884,12.81884l13.65942,-13.02899c21.85508,-21.0145 16.3913,-24.16667 90.99276,50.64493c58.4203,58.21015 63.67392,64.09421 63.67392,70.6087c0,6.0942 -2.73188,9.87681 -21.43478,28.78986l-21.22464,21.64493l13.65942,14.71015c7.56522,7.98551 14.92029,17.86232 16.18116,21.85508c1.8913,5.88406 4.2029,8.19565 9.87681,9.87681c10.71739,3.57246 33.62319,25.84783 39.2971,38.03624c3.57246,7.98551 6.0942,10.92754 11.55797,12.6087c10.2971,3.36232 33.2029,25.84783 38.87682,37.82609c3.57246,7.98551 6.0942,10.92754 11.55797,12.6087c9.66667,3.15218 32.78261,25.42754 38.24638,36.77536c3.36232,6.93478 4.41304,12.18841 3.78261,20.5942l-0.63044,11.55797l22.69565,22.9058c25.21739,25.63768 27.1087,30.26087 17.02174,42.23913c-5.25362,6.30435 -5.25362,6.93478 -2.10145,11.76812c7.98551,12.18841 37.61594,26.26812 55.68841,26.26812c13.23913,0 15.76087,3.57246 26.68841,36.35508c6.51449,19.54348 9.45652,31.94203 8.61594,35.30435c-0.63044,2.73188 -14.5,18.07246 -30.47102,34.04348c-24.37681,24.16667 -30.05073,28.78986 -35.30435,28.57971c-3.36232,0 -18.28261,-4.2029 -33.41305,-9.45652l0,0zm59.47102,-75.23189c-2.3116,-6.93478 -5.46377,-13.86957 -6.72464,-15.13044c-1.26087,-1.26087 -7.35507,-3.36232 -13.44928,-4.62319c-16.60145,-3.78261 -33.41305,-12.81884 -47.28261,-25.42754l-12.18841,-11.34783l-10.71739,10.71739l-10.71739,10.71739l11.13768,12.18841c12.39855,13.44928 24.37681,36.14493 26.47826,50.22464c1.47102,10.71739 1.68116,10.92754 18.7029,16.8116l12.6087,4.62319l18.07246,-17.86232l18.28261,-17.86232l-4.2029,-13.02899l0,0zm-114.1087,-70.6087l29.42029,-29.42029l-13.23913,-13.02899l-13.02899,-13.23913l-29.84058,29.84058l-30.05073,30.05073l12.6087,12.6087c6.93478,6.93478 13.02899,12.6087 13.65942,12.6087c0.63044,0 14.28986,-13.23913 30.47102,-29.42029l0.00001,0zm-51.06522,-49.80435c24.16667,-23.95652 43.71015,-44.97102 43.71015,-46.86232c0,-3.99275 -18.91304,-23.11594 -23.11594,-23.11594c-1.68116,0 -14.5,11.34783 -28.36957,25.21739c-13.86957,13.86957 -25.84783,25.21739 -26.68841,25.21739c-1.68116,0 -22.69565,-21.43478 -22.69565,-23.11594c0,-0.63044 11.34783,-12.39855 25.21739,-26.26812c13.86957,-13.86957 25.21739,-26.47826 25.21739,-28.36957c0,-3.99275 -18.91304,-23.11594 -23.11594,-23.11594c-1.68116,0 -14.5,11.34783 -28.36957,25.21739c-13.86957,13.86957 -25.84783,25.21739 -26.68841,25.21739c-1.8913,0 -22.69565,-21.0145 -22.69565,-22.9058c0,-0.63044 11.34783,-12.6087 25.21739,-26.47826c13.86957,-13.86957 25.21739,-26.47826 25.21739,-28.36957c0,-3.99275 -18.91304,-23.11594 -23.11594,-23.11594c-1.68116,0 -14.5,11.34783 -28.36957,25.21739c-13.86957,13.86957 -25.84783,25.21739 -26.68841,25.21739c-1.8913,0 -22.69565,-21.0145 -22.69565,-22.9058c0,-0.63044 11.34783,-12.6087 25.21739,-26.47826c13.86957,-13.86957 25.21739,-26.68841 25.21739,-28.36957c0,-1.8913 -5.25362,-8.4058 -11.55797,-14.71015l-11.55797,-11.55797l-46.65218,46.86232l-46.86232,46.65218l11.55797,11.55797c11.97826,12.18841 15.34058,13.44928 21.85508,8.4058c14.5,-10.92754 34.25362,8.82609 23.32609,23.32609c-4.83333,6.30435 -3.78261,9.45652 6.72464,20.17392c10.50725,10.71739 13.86957,11.76812 20.38406,6.93478c14.5,-10.92754 34.25362,8.82609 23.32609,23.32609c-4.83333,6.30435 -3.78261,9.45652 6.72464,20.17392c10.50725,10.71739 13.86957,11.76812 20.38406,6.93478c14.5,-10.92754 34.25362,8.82609 23.32609,23.32609c-1.68116,2.10145 -3.15218,5.46377 -3.15218,7.14493c0,3.99275 18.91304,23.11594 23.11594,23.11594c1.68116,0 22.69565,-19.54348 46.65218,-43.5l0,0.00002zm-285.16669,-118.3116l12.6087,-12.6087l-46.86232,-46.86232l-46.65218,-46.65218l-13.02899,13.23913l-13.23913,13.02899l46.23189,46.23189c25.42754,25.42754 46.65218,46.23189 47.28261,46.23189c0.63044,0 6.72464,-5.67391 13.65942,-12.6087l0,0zm84.05798,-84.05798l46.23189,-46.23189l-46.86232,-46.86232l-46.65218,-46.65218l-46.65218,46.65218l-46.86232,46.86232l46.23189,46.23189c25.42754,25.42754 46.65218,46.23189 47.28261,46.23189c0.63044,0 21.85508,-20.80435 47.28261,-46.23189zm-117.68117,-117.68117l63.04348,-63.04348l-13.23913,-13.02899l-13.02899,-13.23913l-63.46377,63.46377l-63.67392,63.67392l12.6087,12.6087c6.93478,6.93478 13.02899,12.6087 13.65942,12.6087c0.63044,0 29.42029,-28.36957 64.09421,-63.04348l0,0zm-50.43479,-50.43479l96.66668,-96.66668l-30.05073,-29.84058l-29.84058,-30.05073l-97.08696,97.08696l-97.29711,97.29711l29.42029,29.42029c16.18116,16.18116 29.84058,29.42029 30.47102,29.42029c0.63044,0 44.55073,-43.5 97.7174,-96.66668l0,0.00001zm252.17393,84.05798l12.6087,-12.6087l-46.86232,-46.86232l-46.65218,-46.65218l-13.02899,13.23913l-13.23913,13.02899l46.23189,46.23189c25.42754,25.42754 46.65218,46.23189 47.28261,46.23189c0.63044,0 6.72464,-5.67391 13.65942,-12.6087l0,0zm-336.86234,-167.69566c82.37682,-82.16667 89.94204,-90.36233 89.94204,-96.66668c0,-9.66667 -9.66667,-19.33334 -19.33334,-19.33334c-6.30435,0 -14.5,7.56522 -96.66668,89.94204c-82.37682,82.16667 -89.94204,90.36233 -89.94204,96.66668c0,5.04348 1.8913,8.82609 6.0942,13.23913c4.41304,4.2029 8.19565,6.0942 13.23913,6.0942c6.30435,0 14.5,-7.56522 96.66668,-89.94204zm-57.15942,-43.92029c23.53623,-23.53623 35.93478,-37.4058 31.52174,-34.88406c-3.99275,2.10145 -25.84783,14.28986 -48.33334,26.89855c-22.48551,12.39855 -41.81884,23.53623 -43.07971,24.58696c-1.68116,1.47102 16.8116,22.69565 19.96377,22.69565c0.63044,0 18.49276,-17.65218 39.92754,-39.2971zm-24.16667,-42.23913c30.05073,-16.8116 55.05798,-30.89131 55.47826,-31.3116c1.26087,-1.05072 -23.32609,-25.84783 -25.63768,-25.84783c-1.05072,0 -28.15942,14.92029 -60.52174,32.99276l-58.84058,32.99276l13.02899,13.02899c11.55797,11.55797 13.65942,13.02899 17.44203,10.92754c2.52174,-1.26087 29,-15.97102 59.05073,-32.78261zm-53.16667,-50.22464l58.63044,-32.99276l-18.91304,-18.91304l-19.12319,-19.12319l-46.65218,46.65218l-46.65218,46.65218l5.04348,5.46377c2.73188,2.94203 5.88406,5.25362 6.93478,5.25362c1.05072,0 28.36957,-14.92029 60.73189,-32.99276l-0.00001,0zm-49.80435,-48.96377l12.6087,-12.81884l-9.87681,-9.24638c-12.18841,-11.76812 -19.96377,-12.6087 -29.21015,-3.36232c-9.03623,9.03623 -8.19565,16.8116 2.52174,28.57971c4.83333,5.25362 9.24638,9.45652 10.08696,9.45652c0.84058,0 6.93478,-5.67391 13.86957,-12.6087l0,0z" id="svg_2"/>
  </g>
 </g>

</svg>
